<svg id="Icon_ionic-ios-mail" data-name="Icon ionic-ios-mail" xmlns="http://www.w3.org/2000/svg" width="16.08" height="11.132" viewBox="0 0 16.08 11.132">
  <path id="Path_21" data-name="Path 21" d="M19.323,10.338l-4.159,4.236a.075.075,0,0,0,0,.108l2.911,3.1a.5.5,0,0,1,0,.711.5.5,0,0,1-.711,0l-2.9-3.088a.079.079,0,0,0-.112,0l-.707.719a3.112,3.112,0,0,1-2.219.935A3.175,3.175,0,0,1,9.161,16.1l-.68-.692a.079.079,0,0,0-.112,0l-2.9,3.088a.5.5,0,0,1-.711,0,.5.5,0,0,1,0-.711l2.911-3.1a.082.082,0,0,0,0-.108L3.506,10.338a.076.076,0,0,0-.131.054v8.477a1.241,1.241,0,0,0,1.237,1.237H18.218a1.241,1.241,0,0,0,1.237-1.237V10.392A.077.077,0,0,0,19.323,10.338Z" transform="translate(-3.375 -8.973)" fill="#fafafa"/>
  <path id="Path_22" data-name="Path 22" d="M11.8,14.952a2.1,2.1,0,0,0,1.511-.634l6.065-6.173a1.215,1.215,0,0,0-.765-.271H4.991a1.207,1.207,0,0,0-.765.271l6.065,6.173A2.1,2.1,0,0,0,11.8,14.952Z" transform="translate(-3.758 -7.875)" fill="#fafafa"/>
</svg>
