<svg xmlns="http://www.w3.org/2000/svg" width="16.165" height="16.164" viewBox="0 0 16.165 16.164">
  <path id="Icon_ionic-ios-call" data-name="Icon ionic-ios-call" d="M20.188,17.159a13.577,13.577,0,0,0-2.836-1.9c-.85-.408-1.161-.4-1.763.034-.5.362-.825.7-1.4.572a8.359,8.359,0,0,1-2.815-2.083,8.3,8.3,0,0,1-2.083-2.815c-.122-.581.215-.9.572-1.4.433-.6.446-.913.034-1.763A13.309,13.309,0,0,0,8,4.968c-.619-.619-.757-.484-1.1-.362a6.25,6.25,0,0,0-1.006.534A3.034,3.034,0,0,0,4.685,6.416c-.24.518-.518,1.481.9,4A22.307,22.307,0,0,0,9.5,15.644h0l0,0,0,0h0a22.394,22.394,0,0,0,5.231,3.922c2.516,1.414,3.48,1.136,4,.9a2.982,2.982,0,0,0,1.275-1.208,6.25,6.25,0,0,0,.534-1.006C20.672,17.916,20.811,17.777,20.188,17.159Z" transform="translate(-4.49 -4.502)" fill="#fff"/>
</svg>
