<svg xmlns="http://www.w3.org/2000/svg" width="14.54" height="11.004" viewBox="0 0 14.54 11.004"><defs><style>.a{fill:#004150;fill-rule:evenodd;}</style></defs><path class="a" d="M426.391,25.532a2.209,2.209,0,0,0-.51-.837,2.508,2.508,0,0,0-.987-.616,4.741,4.741,0,0,0-1.579-.221h-.877a4.767,4.767,0,0,1,1.154-2.757,8.625,8.625,0,0,1,2.761-1.994L425.64,18a10.751,10.751,0,0,0-3.976,2.9,5.851,5.851,0,0,0-1.649,3.794,4.777,4.777,0,0,0,.959,3.167A3.394,3.394,0,0,0,423.727,29a2.852,2.852,0,0,0,1.975-.758,2.318,2.318,0,0,0,.839-1.768,3.026,3.026,0,0,0-.149-.946m-8.015,0a2.217,2.217,0,0,0-.51-.837,2.5,2.5,0,0,0-.987-.616,4.733,4.733,0,0,0-1.578-.221h-.877a4.772,4.772,0,0,1,1.153-2.757,8.64,8.64,0,0,1,2.761-1.994L417.624,18a10.751,10.751,0,0,0-3.976,2.9A5.851,5.851,0,0,0,412,24.695a4.775,4.775,0,0,0,.958,3.167A3.392,3.392,0,0,0,415.711,29a2.853,2.853,0,0,0,1.975-.758,2.317,2.317,0,0,0,.839-1.768,3.061,3.061,0,0,0-.149-.946" transform="translate(-412 -18.001)"/></svg>